<?xml version="1.0" standalone="no"?>
<!DOCTYPE svg PUBLIC "-//W3C//DTD SVG 20010904//EN"
 "http://www.w3.org/TR/2001/REC-SVG-20010904/DTD/svg10.dtd">
<svg version="1.0" xmlns="http://www.w3.org/2000/svg"
 width="512.000000pt" height="512.000000pt" viewBox="0 0 512.000000 512.000000"
 preserveAspectRatio="xMidYMid meet">

<g transform="translate(0.000000,512.000000) scale(0.100000,-0.100000)"
fill="#000000" stroke="none">
<path d="M2354 5110 c-500 -42 -969 -226 -1374 -538 -109 -85 -347 -323 -432
-432 -436 -566 -618 -1251 -518 -1950 64 -440 239 -850 519 -1210 81 -105 311
-337 410 -415 563 -442 1238 -630 1940 -539 451 58 890 246 1261 538 97 76
320 299 396 396 292 370 476 804 540 1270 23 169 23 491 0 659 -40 295 -111
528 -241 796 -340 699 -985 1205 -1750 1374 -216 48 -535 69 -751 51z m-204
-1325 c105 -38 210 -103 316 -195 l92 -78 93 78 c114 96 219 159 324 197 75
26 90 28 235 27 143 0 161 -2 230 -27 118 -43 206 -101 305 -201 73 -73 99
-107 132 -176 56 -114 73 -183 80 -321 7 -145 -13 -277 -67 -440 -143 -433
-486 -835 -1022 -1200 -186 -126 -234 -149 -314 -149 -72 0 -98 12 -277 131
-599 401 -966 855 -1088 1349 -19 80 -23 122 -24 260 0 146 3 174 23 240 51
161 156 305 298 406 88 63 168 97 299 128 11 3 81 4 155 2 119 -3 144 -6 210
-31z"/>
</g>
</svg>
