<?xml version="1.0" standalone="no"?>
<!DOCTYPE svg PUBLIC "-//W3C//DTD SVG 20010904//EN"
 "http://www.w3.org/TR/2001/REC-SVG-20010904/DTD/svg10.dtd">
<svg version="1.0" xmlns="http://www.w3.org/2000/svg"
 width="512.000000pt" height="512.000000pt" viewBox="0 0 512.000000 512.000000"
 preserveAspectRatio="xMidYMid meet">

<g transform="translate(0.000000,512.000000) scale(0.100000,-0.100000)"
fill="#000000" stroke="none">
<path d="M2187 5009 c-136 -32 -248 -153 -265 -287 l-7 -57 -145 -6 c-134 -5
-149 -7 -203 -34 -69 -34 -120 -88 -153 -160 l-25 -53 -217 -4 -217 -3 -77
-37 c-126 -60 -207 -150 -252 -281 l-21 -62 -3 -1715 c-2 -1158 1 -1741 8
-1795 26 -200 172 -359 367 -400 100 -21 2485 -22 2584 -1 173 37 309 168 355
340 11 41 14 192 14 756 l0 705 52 30 c123 72 258 198 337 314 123 181 183
378 183 601 -1 195 -46 365 -141 532 -83 144 -235 299 -371 375 l-48 27 -4
130 c-4 104 -9 143 -27 188 -51 131 -164 236 -298 278 -56 17 -93 20 -259 20
l-193 0 -26 54 c-32 68 -117 148 -182 171 -34 13 -89 19 -194 22 l-146 5 -6
50 c-24 200 -225 343 -420 297z m190 -123 c37 -19 86 -72 108 -116 11 -20 20
-67 23 -110 2 -41 9 -81 14 -87 8 -9 52 -13 159 -13 176 0 236 -11 291 -53 90
-69 115 -192 55 -270 -54 -71 -20 -68 -766 -65 -662 3 -670 3 -698 24 -50 37
-73 81 -73 141 0 65 21 113 68 159 52 51 110 64 281 64 177 0 181 2 181 97 0
134 81 234 205 253 47 7 114 -3 152 -24z m-983 -632 c21 -68 78 -134 144 -166
l47 -23 645 -3 c355 -2 668 0 696 3 106 13 215 111 230 207 l7 39 201 -3 c193
-3 203 -4 258 -30 78 -36 142 -98 179 -174 27 -54 33 -79 37 -161 5 -90 4 -96
-14 -89 -10 4 -54 17 -98 29 -70 19 -106 22 -261 21 -152 0 -192 -3 -257 -21
-377 -105 -665 -394 -759 -761 -56 -221 -36 -493 53 -684 l31 -69 -59 -252
c-33 -139 -58 -260 -56 -270 11 -43 37 -41 300 22 l251 60 68 -30 c90 -40 225
-75 346 -89 137 -16 299 5 434 57 12 5 13 -93 11 -688 -3 -657 -4 -696 -22
-739 -44 -104 -111 -170 -217 -213 l-54 -22 -1210 -3 c-797 -2 -1237 1 -1288
7 -139 19 -239 90 -296 210 l-26 56 -3 1755 c-2 1272 0 1769 8 1807 15 68 76
160 136 202 81 59 135 70 340 70 l180 1 18 -56z m2294 -474 c290 -69 540 -293
651 -580 69 -179 80 -424 27 -603 -85 -285 -286 -512 -543 -611 -129 -49 -225
-67 -363 -67 -161 0 -256 21 -401 88 l-77 35 -216 -52 c-120 -29 -219 -51
-221 -49 -2 2 19 94 45 204 27 110 49 212 50 227 0 15 -9 42 -19 60 -11 18
-34 74 -50 124 -169 503 112 1052 619 1208 47 15 114 31 150 36 91 12 250 3
348 -20z"/>
<path d="M1079 3463 c-11 -12 -14 -55 -14 -175 0 -146 2 -161 19 -174 30 -21
318 -20 340 2 13 13 16 44 16 178 0 113 -4 166 -12 174 -8 8 -61 12 -174 12
-138 0 -164 -2 -175 -17z m261 -168 l0 -85 -85 0 -85 0 0 85 0 85 85 0 85 0 0
-85z"/>
<path d="M1588 3419 c-21 -12 -24 -59 -6 -77 9 -9 85 -12 279 -12 230 0 270 2
283 16 9 8 16 24 16 34 0 10 -7 26 -16 34 -13 14 -52 16 -277 16 -159 0 -269
-5 -279 -11z"/>
<path d="M1592 3254 c-28 -20 -28 -58 0 -78 17 -13 51 -16 148 -16 97 0 131 3
148 16 28 20 30 69 3 84 -11 5 -77 10 -148 10 -100 0 -133 -3 -151 -16z"/>
<path d="M1084 2826 c-17 -13 -19 -28 -19 -174 0 -120 3 -163 14 -175 11 -15
37 -17 175 -17 113 0 166 4 174 12 8 8 12 61 12 174 0 206 12 194 -190 194
-110 0 -151 -3 -166 -14z m256 -181 l0 -85 -85 0 -85 0 0 85 0 85 85 0 85 0 0
-85z"/>
<path d="M1600 2777 c-31 -15 -37 -52 -14 -78 16 -18 33 -19 273 -19 219 0
260 2 279 16 31 21 26 64 -8 81 -35 18 -495 18 -530 0z"/>
<path d="M1582 2598 c-7 -7 -12 -24 -12 -38 0 -46 13 -50 170 -50 157 0 170 4
170 50 0 46 -13 50 -170 50 -100 0 -150 -4 -158 -12z"/>
<path d="M1079 2173 c-11 -12 -14 -55 -14 -175 0 -146 2 -161 19 -174 30 -21
318 -20 340 2 13 13 16 44 16 178 0 113 -4 166 -12 174 -8 8 -61 12 -174 12
-138 0 -164 -2 -175 -17z m261 -173 l0 -90 -85 0 -85 0 0 90 0 90 85 0 85 0 0
-90z"/>
<path d="M1588 2119 c-21 -12 -24 -59 -6 -77 9 -9 86 -12 285 -12 259 0 273 1
283 19 14 27 13 47 -6 65 -13 14 -52 16 -277 16 -159 0 -269 -5 -279 -11z"/>
<path d="M1593 1955 c-31 -22 -30 -60 1 -81 35 -22 292 -17 306 6 12 19 12 51
0 70 -14 23 -276 27 -307 5z"/>
<path d="M1098 1533 c-29 -7 -40 -69 -36 -209 2 -92 7 -136 17 -147 11 -15 37
-17 175 -17 113 0 166 4 174 12 8 8 12 61 12 174 0 206 11 194 -185 193 -77
-1 -148 -3 -157 -6z m242 -188 l0 -85 -85 0 -85 0 0 85 0 85 85 0 85 0 0 -85z"/>
<path d="M2402 1524 c-21 -15 -22 -21 -22 -178 0 -113 4 -166 12 -174 17 -17
329 -17 346 0 8 8 12 61 12 174 0 205 11 194 -185 194 -111 0 -145 -3 -163
-16z m248 -179 l0 -85 -85 0 -85 0 0 85 0 85 85 0 85 0 0 -85z"/>
<path d="M1582 1468 c-17 -17 -15 -54 4 -72 23 -24 518 -24 552 0 24 17 29 53
10 72 -17 17 -549 17 -566 0z"/>
<path d="M2902 1468 c-18 -18 -15 -53 6 -71 16 -15 51 -17 279 -17 239 0 261
1 276 18 20 22 22 53 5 70 -17 17 -549 17 -566 0z"/>
<path d="M1582 1308 c-7 -7 -12 -24 -12 -38 0 -46 13 -50 170 -50 157 0 170 4
170 50 0 46 -13 50 -170 50 -100 0 -150 -4 -158 -12z"/>
<path d="M2908 1309 c-21 -12 -24 -59 -6 -77 8 -8 58 -12 160 -12 146 0 148 0
164 25 15 23 15 27 0 50 -16 25 -18 25 -159 25 -78 0 -150 -5 -159 -11z"/>
<path d="M1079 873 c-11 -12 -14 -55 -14 -175 0 -146 2 -161 19 -174 24 -17
306 -20 337 -4 18 10 19 23 19 178 0 117 -4 172 -12 180 -8 8 -61 12 -174 12
-138 0 -164 -2 -175 -17z m261 -173 l0 -90 -85 0 -85 0 0 90 0 90 85 0 85 0 0
-90z"/>
<path d="M2392 878 c-8 -8 -12 -63 -12 -180 0 -155 1 -168 19 -178 26 -13 306
-13 332 0 18 10 19 23 19 178 0 117 -4 172 -12 180 -17 17 -329 17 -346 0z
m258 -178 l0 -90 -85 0 -85 0 0 90 0 90 85 0 85 0 0 -90z"/>
<path d="M1588 829 c-21 -12 -24 -62 -4 -78 9 -8 94 -11 287 -9 l274 3 9 27
c8 22 6 32 -9 48 -17 19 -29 20 -279 20 -159 0 -268 -5 -278 -11z"/>
<path d="M2906 824 c-19 -18 -21 -55 -4 -72 17 -17 549 -17 566 0 17 17 15 54
-4 72 -23 24 -535 24 -558 0z"/>
<path d="M1592 654 c-28 -20 -28 -58 0 -78 18 -13 51 -16 151 -16 71 0 137 5
148 10 27 15 25 64 -3 84 -17 13 -51 16 -148 16 -97 0 -131 -3 -148 -16z"/>
<path d="M2913 655 c-29 -21 -29 -59 -1 -79 30 -21 274 -23 302 -3 21 15 25
62 7 80 -8 8 -61 13 -149 15 -113 2 -141 0 -159 -13z"/>
<path d="M3271 3535 c-142 -37 -261 -97 -261 -131 0 -27 108 -241 125 -247 10
-5 48 7 96 28 182 83 339 79 339 -8 0 -47 -30 -88 -112 -153 -106 -85 -150
-132 -181 -194 -23 -46 -27 -66 -27 -142 0 -76 2 -89 19 -98 29 -15 283 -13
303 3 10 7 18 35 21 71 7 67 14 77 114 153 89 67 164 147 194 210 21 41 24 63
24 153 0 96 -2 110 -28 159 -54 102 -149 175 -270 207 -84 22 -246 17 -356
-11z m355 -96 c56 -17 77 -31 124 -77 68 -69 86 -120 76 -215 -9 -89 -54 -149
-184 -250 -111 -85 -137 -117 -147 -179 l-7 -38 -69 0 -69 0 0 35 c0 70 56
141 190 242 90 68 133 138 133 219 0 67 -26 112 -84 144 -38 22 -56 25 -134
24 -74 0 -107 -6 -184 -33 -52 -17 -95 -30 -96 -29 -5 6 -45 87 -45 92 0 9
136 57 200 71 100 21 216 19 296 -6z"/>
<path d="M3349 2517 c-96 -36 -129 -85 -129 -192 0 -139 81 -213 220 -203 115
8 180 81 180 203 0 82 -25 135 -80 171 -47 31 -137 41 -191 21z m149 -122 c16
-19 22 -39 22 -74 0 -60 -29 -91 -92 -98 -37 -4 -49 -1 -76 22 -29 24 -32 32
-32 79 0 38 5 57 18 69 48 44 122 45 160 2z"/>
</g>
</svg>
