<?xml version="1.0" standalone="no"?>
<!DOCTYPE svg PUBLIC "-//W3C//DTD SVG 20010904//EN"
 "http://www.w3.org/TR/2001/REC-SVG-20010904/DTD/svg10.dtd">
<svg version="1.0" xmlns="http://www.w3.org/2000/svg"
 width="512.000000pt" height="512.000000pt" viewBox="0 0 512.000000 512.000000"
 preserveAspectRatio="xMidYMid meet">

<g transform="translate(0.000000,512.000000) scale(0.100000,-0.100000)"
fill="#000000" stroke="none">
<path d="M4031 4863 c-28 -15 -57 -57 -167 -248 -148 -255 -154 -273 -105
-327 38 -43 98 -46 135 -8 13 14 81 124 150 245 139 243 145 264 99 314 -36
39 -69 46 -112 24z"/>
<path d="M2550 4806 c-137 -38 -245 -140 -291 -273 -21 -62 -26 -184 -9 -242
9 -31 4 -46 -56 -170 -219 -457 -576 -878 -1094 -1293 -42 -33 -50 -36 -92
-31 -46 5 -54 1 -330 -157 -156 -90 -310 -182 -343 -206 -347 -243 -438 -733
-201 -1085 109 -163 279 -280 476 -330 71 -18 104 -21 215 -17 141 5 234 29
343 88 l52 28 33 -41 c19 -23 152 -197 297 -387 145 -190 275 -358 289 -374
61 -68 186 -90 272 -48 24 12 97 72 161 134 93 90 119 121 127 153 18 65 13
127 -12 176 -13 24 -147 206 -298 405 -152 198 -279 365 -282 371 -12 20 357
150 615 217 319 84 583 119 883 118 282 0 341 -8 398 -57 23 -20 71 -51 107
-68 61 -30 72 -32 175 -32 105 0 114 2 178 33 171 84 269 269 238 448 -15 84
-25 104 -270 527 -111 191 -201 351 -201 355 0 4 19 21 41 37 49 36 101 104
134 176 103 227 -1 507 -228 614 -118 57 -270 63 -379 16 l-47 -20 -74 127
c-40 70 -140 243 -222 386 -83 142 -166 277 -186 300 -97 109 -277 161 -419
122z m207 -210 c17 -8 44 -29 59 -45 40 -40 1354 -2318 1378 -2387 17 -49 17
-62 6 -111 -22 -100 -112 -172 -216 -173 -60 0 -144 38 -173 78 -10 15 -322
551 -692 1192 l-674 1165 0 82 c0 74 3 85 30 125 44 63 122 101 196 95 31 -3
70 -12 86 -21z m188 -1541 c301 -522 555 -964 566 -980 l18 -31 -222 -1 c-476
-1 -965 -101 -1487 -304 -68 -27 -128 -45 -131 -41 -13 13 -529 911 -529 919
1 4 21 23 45 41 178 130 507 439 670 627 174 201 359 469 457 661 33 63 46 80
54 71 6 -7 258 -439 559 -962z m841 644 c56 -26 113 -83 137 -138 28 -63 27
-161 -2 -222 -26 -54 -87 -117 -100 -103 -5 5 -68 110 -139 234 -141 244 -139
234 -59 249 56 10 113 3 163 -20z m-2537 -1644 c160 -277 291 -508 291 -513 0
-13 -495 -293 -558 -315 -79 -28 -246 -35 -331 -13 -250 64 -432 282 -448 536
-10 174 50 334 172 454 58 58 111 94 315 212 135 79 250 143 256 143 6 1 142
-226 303 -504z m695 -1060 c146 -192 266 -357 266 -366 0 -15 -182 -189 -198
-189 -4 0 -12 4 -19 8 -12 8 -593 764 -593 772 0 3 58 38 128 77 100 57 129
70 139 60 6 -6 131 -169 277 -362z"/>
<path d="M4455 4019 c-115 -66 -220 -130 -232 -141 -65 -60 -19 -168 72 -168
29 0 435 230 473 267 15 15 22 34 22 62 0 54 -32 91 -85 97 -37 5 -57 -5 -250
-117z"/>
<path d="M4500 3229 c-38 -16 -59 -39 -66 -74 -7 -37 15 -89 45 -105 12 -6
127 -10 300 -10 276 0 280 0 306 23 34 29 44 87 20 123 -32 49 -63 54 -332 53
-139 0 -259 -5 -273 -10z"/>
</g>
</svg>
