<svg xmlns="http://www.w3.org/2000/svg" version="1.1" xmlns:xlink="http://www.w3.org/1999/xlink" width="512" height="512" x="0" y="0" viewBox="0 0 24 24" style="enable-background:new 0 0 512 512" xml:space="preserve" class=""><g transform="matrix(1,0,0,1,7.105427357601002e-15,7.105427357601002e-15)"><path d="m23.995 23.287-6.584-6.584a9.949 9.949 0 0 0 2.596-6.697c-.001-5.514-4.487-10-10.001-10s-10 4.486-10 10 4.486 10 10 10a9.949 9.949 0 0 0 6.697-2.596l6.584 6.584.707-.707ZM1.006 10.006c0-4.963 4.037-9 9-9s9 4.037 9 9-4.038 9-9 9-9-4.037-9-9ZM13 13h-1.5V5h-3v8H7V8H4v6h12V7h-3v6Zm-7 0H5V9h1v4Zm3.5-7h1v7h-1V6ZM14 8h1v5h-1V8Z" fill="#D602EE" opacity="1"  class=""></path></g></svg>